<svg width="219" height="180" viewBox="0 0 219 180" fill="none" xmlns="http://www.w3.org/2000/svg">
<g filter="url(#filter0_ii_3_24)">
<path d="M111.278 89.0746L128.518 58.7735H61.6686C58.5271 58.7735 55.3932 59.0815 52.3118 59.6931L50.1552 60.1211C32.7507 63.5755 17.7345 74.484 9.06905 89.9681L6.79161 94.0377L6.59509 94.5365C2.27816 105.495 0.992556 117.414 2.87337 129.041L3.21796 130.541C5.88843 142.165 11.9507 152.734 20.636 160.909C28.8782 169.319 39.7827 174.798 51.4595 176.321L53.1206 176.594C64.4236 178.452 76.0245 176.615 86.2012 171.358L88.1918 170.347C98.0093 165.363 106.334 157.871 112.323 148.632L120.715 133.998C121.514 132.605 120.509 130.869 118.903 130.869H86.2266C84.7092 130.869 83.4187 131.976 83.188 133.476C83.1087 133.991 82.8853 134.474 82.5437 134.868L81.9683 135.532C79.4078 138.485 76.2496 140.861 72.7026 142.502L71.7065 142.964C71.4439 143.085 71.1719 143.186 70.8932 143.264L69.539 143.644C61.1924 145.987 52.243 144.666 44.9291 140.012L43.4689 138.621C37.3955 132.837 33.958 124.816 33.958 116.429C33.958 114.747 34.221 113.075 34.7375 111.474L35.1484 110.2C37.702 102.284 43.6696 95.9292 51.4098 92.8839L51.9996 92.6518C54.0592 91.8415 56.2527 91.4255 58.466 91.4255H106.711C107.115 91.4255 107.366 91.8629 107.163 92.2112L90.7107 120.414C90.1012 121.459 90.8549 122.771 92.0645 122.771H160.477C162.155 122.771 163.832 122.64 165.49 122.378C176.829 120.588 187.425 115.606 196.037 108.015L198.263 106.054L198.573 105.713C207.107 96.3426 213.113 84.9528 216.025 72.618C217.564 60.4832 215.768 48.1587 210.83 36.9675L210.54 36.309L208.589 33.0102C200.627 19.5476 187.729 9.72053 172.636 5.61759L169.268 4.70188C156.594 1.66025 143.26 3.07264 131.505 8.7018L131.13 8.88133L129.96 9.49623C120.629 14.399 112.746 21.6625 107.098 30.5622L95.3437 49.3698H132.959L137.833 43.6833C141.736 39.1296 147.291 36.3165 153.272 35.8651C156.255 35.64 159.256 35.8808 162.165 36.5791L164.874 37.2293C172.643 39.0939 178.901 44.8343 181.428 52.4143L181.837 53.6406C182.855 56.6943 183.373 59.8921 183.373 63.111V65.6851C183.373 70.3657 181.922 74.9312 179.219 78.7526C176.981 81.9163 173.919 84.406 170.365 85.9511L170.136 86.0507C165.944 87.8735 161.425 88.8251 156.854 88.8478L111.278 89.0746Z" fill="url(#paint0_linear_3_24)"/>
</g>
<defs>
<filter id="filter0_ii_3_24" x="1.25754" y="1.32756" width="217.109" height="178.036" filterUnits="userSpaceOnUse" color-interpolation-filters="sRGB">
<feFlood flood-opacity="0" result="BackgroundImageFix"/>
<feBlend mode="normal" in="SourceGraphic" in2="BackgroundImageFix" result="shape"/>
<feColorMatrix in="SourceAlpha" type="matrix" values="0 0 0 0 0 0 0 0 0 0 0 0 0 0 0 0 0 0 127 0" result="hardAlpha"/>
<feOffset dx="1.8069" dy="-1.8069"/>
<feGaussianBlur stdDeviation="2.40059"/>
<feComposite in2="hardAlpha" operator="arithmetic" k2="-1" k3="1"/>
<feColorMatrix type="matrix" values="0 0 0 0 0.0627451 0 0 0 0 0.0666667 0 0 0 0 0.0666667 0 0 0 0.64 0"/>
<feBlend mode="normal" in2="shape" result="effect1_innerShadow_3_24"/>
<feColorMatrix in="SourceAlpha" type="matrix" values="0 0 0 0 0 0 0 0 0 0 0 0 0 0 0 0 0 0 127 0" result="hardAlpha"/>
<feOffset dx="-0.774384" dy="2.06502"/>
<feGaussianBlur stdDeviation="4.07842"/>
<feComposite in2="hardAlpha" operator="arithmetic" k2="-1" k3="1"/>
<feColorMatrix type="matrix" values="0 0 0 0 0.337255 0 0 0 0 0.4 0 0 0 0 0.964706 0 0 0 0.76 0"/>
<feBlend mode="normal" in2="effect1_innerShadow_3_24" result="effect2_innerShadow_3_24"/>
</filter>
<linearGradient id="paint0_linear_3_24" x1="173.72" y1="16.9074" x2="-14.8424" y2="194.241" gradientUnits="userSpaceOnUse">
<stop stop-color="#4B57AA"/>
<stop offset="1" stop-color="#1D0C46"/>
</linearGradient>
</defs>
</svg>
